<?xml version="1.0" encoding="utf-8" ?><svg xmlns="http://www.w3.org/2000/svg" xmlns:xlink="http://www.w3.org/1999/xlink" width="200" height="200" viewBox="0 0 200 200"><path fill="#262626" transform="scale(0.195312 0.195312)" d="M0 0L1024 0L1024 1024L0 1024L0 0Z"/><path fill="#FAF9F9" transform="scale(0.195312 0.195312)" d="M764.69 191.567C845.331 259.099 895.866 355.883 905.19 460.653C915.107 569.877 880.735 678.507 809.794 762.146C742.259 842.554 647.942 895.214 542.862 904.299C477.406 909.701 411.691 897.589 352.461 869.206C335.527 861.136 322.624 853.166 306.772 844C319.63 840.23 333.631 834.54 346.05 829.41C373.496 842.871 405.503 857.211 435.362 864.274C415.258 852.014 391.072 832.387 376.731 813.644C380.754 811.669 385.321 809.289 389.433 807.644C394.688 813.288 399.318 819.332 404.753 824.869C431.484 852.106 454.073 867.033 491.464 875.607L493.492 871.624C507.123 870.713 520.734 869.521 534.316 868.05C534.967 873.077 536.09 875.144 541.753 874.131C585.674 866.272 624.82 828.902 648.193 792.375C616.681 791.073 586.742 788.158 555.832 781.443C545.898 779.286 533.45 776.905 524.169 772.907C537.703 773.053 552.577 774.385 566.233 775.079C588.747 776.238 611.295 776.574 633.833 776.087C640.504 775.877 652.122 775.772 658.28 774.944C660.531 771.272 662.737 767.574 664.899 763.851L685.575 763.955C684.231 766.699 682.459 770.098 681.33 772.873C697.359 771.395 712.418 769.024 728.142 765.797C748.132 761.694 758.671 757.043 771.812 741.329C777.534 734.394 782.877 727.154 787.818 719.643C791.736 713.65 804.5 692.486 809.166 688.542L808.44 687.187C796.687 693.413 777.837 701.601 764.725 703.985C764.565 701.273 763.683 693.072 765.481 691.651C772.275 686.28 782.138 682.911 789.463 678.012C824.229 654.761 853.889 623.519 856.392 579.75C858.885 536.144 829.215 487.95 801.338 456.268C790.652 477.356 778.419 499.474 765.142 519.053C765.041 508.526 764.819 498.001 764.475 487.48C771.082 475.303 780.834 453.216 785.244 440.136C761.587 416.075 736.243 393.734 709.404 373.283C705.806 370.53 692.827 361.854 692.195 358.249C692.636 356.38 692.135 357.046 693.559 356.053C697.095 355.937 703.338 359.67 706.666 361.411C737.733 377.656 764.596 398.875 791.939 420.441C800.989 392.574 805.63 366.782 802.409 337.348C796.814 286.218 773.032 241.591 737.949 204.665C746.366 200.507 756.63 195.85 764.69 191.567Z"/><path fill="#414040" transform="scale(0.195312 0.195312)" d="M808.44 687.187C813.936 683.593 819.695 680.318 824.945 676.411C818.859 689.407 808.952 705.427 800.796 717.518C802.644 712.745 810.895 692.923 809.166 688.542L808.44 687.187Z"/><path fill="#262626" transform="scale(0.195312 0.195312)" d="M807.742 269.335C813.777 274.596 825.523 294.181 830.214 301.284C861.642 348.866 868.157 404.369 870.036 459.952C870.901 485.561 873.501 506.192 871.241 532.343C870.251 528.686 868.912 524.971 867.68 521.374C854.118 488.313 833.401 461.285 809.419 435.085C824.891 388.901 831.519 347.589 818.583 299.489C815.673 288.666 811.652 279.726 807.742 269.335Z"/><path fill="#262626" transform="scale(0.195312 0.195312)" d="M742.317 778.53L743.042 778.604L742.764 779.299C733.367 786.619 725.101 794.117 715.165 801.222C681.807 825.072 637.998 848.556 599.218 862.013L598.327 862.015C598.814 861.092 604.686 857.63 605.991 856.782C613.877 851.615 621.415 845.936 628.555 839.779C645.842 825.057 657.968 810.788 670.537 792.154C678.214 791.065 687.098 790.689 695.2 789.603C712.305 787.312 725.972 783.748 742.317 778.53Z"/><path fill="#FAF9F9" transform="scale(0.195312 0.195312)" d="M490.866 100.788C498.493 100.071 511.645 100.217 519.506 100.315C590.956 101.204 667.805 124.168 727.06 164.368C720.29 167.154 713.65 170.309 707.006 173.39C695.054 165.662 684.577 157.157 671.75 149.882C646.961 135.824 619.045 131.1 591.415 125.795C596.765 129.73 603.589 133.365 609.454 137.789C621.648 146.986 629.107 154.983 639.181 166.129C646.118 166.003 657.06 164.789 663.544 163.125C665.902 159.949 667.625 155.798 670.296 152.046C675.056 162.606 679.709 173.744 684.412 184.407C668.622 173.671 660.424 172.951 641.437 169.078C644.2 172.782 660.681 194.729 656.741 197.805C652.385 198.049 640.331 193.356 635.187 191.654C624.672 172.858 610.52 156.344 593.555 143.076C585.548 136.911 560.157 120.969 550.732 120.605C535.384 120.013 511.922 123.266 496.271 125.25L494.976 118.438C441.785 132.935 410.824 163.357 381.944 208.959C403.384 209.651 422.114 212.427 443.3 215.224C422.579 227.813 420.145 225.501 397.251 225.223C389.041 225.128 380.83 225.238 372.626 225.555C363.769 242.297 357.962 260.032 350.493 277.234C349.875 278.657 340.343 286.231 338.5 287.793C333.826 291.739 329.336 295.896 325.041 300.251C328.677 279.36 339.497 247.986 347.236 228.334C313.372 229.314 253.761 252.263 231.696 279.886C219.1 295.655 208.083 330.832 203.958 350.886C197.385 389.142 201.356 428.465 215.443 464.634C227.715 450.041 245.643 433.695 259.644 420.457C256.901 427.861 247.712 448.651 243.469 454.719C237.634 463.066 228.666 474.139 222.308 482.698C231.83 506.004 242.321 528.394 252.97 551.188L240.727 557.909C229.23 540.247 218.597 520.4 208.644 501.879C187.893 530.168 170.398 566.595 174.377 602.5C177.171 627.723 185.865 646.944 197.894 668.681C193.889 676.43 189.558 684.155 185.498 691.908C182.616 697.414 179.687 703.983 176.603 709.177C143.134 654.005 123.267 591.664 118.644 527.3C110.47 420.286 145.832 314.502 216.718 233.917C287.815 152.65 383.673 107.858 490.866 100.788Z"/><path fill="#262626" transform="scale(0.195312 0.195312)" d="M181.37 341.941C181.327 344.138 180.028 351.456 179.661 354C178.706 360.458 178.087 366.961 177.807 373.483C176.27 410.928 186.264 446.636 199.863 481.179C183.668 500.883 167.522 526.887 158.9 550.895C158.172 553.253 157.383 555.32 156.51 557.614C153.185 532.668 151.007 509.483 152.147 484.207C152.9 467.508 154.761 450.519 156.668 433.91C160.476 434.775 166.041 436.73 168.883 433.474C168.266 431.267 164.91 428.557 163.73 424.75C161.594 417.859 161.586 412.182 161.521 405.112C161.296 380.802 171.27 363.078 181.37 341.941Z"/><path fill="#262626" transform="scale(0.195312 0.195312)" d="M413.324 138.115L413.591 138.228C413.557 138.56 400.605 150.325 399.148 151.697C381.327 168.467 368.366 188.325 356.246 209.381C333.522 211.3 318.537 213.989 296.727 220.392L296.568 220.319L296.404 219.765C305.192 206.403 320.358 193.931 330.626 181.558C332.528 179.266 334.095 175.074 336.17 173.386C340.071 170.211 345.193 167.652 349.66 165.28C370.036 154.359 391.341 145.268 413.324 138.115Z"/><path fill="#414040" transform="scale(0.195312 0.195312)" d="M299.174 199.031C299.226 200.394 290.742 219.728 289.645 222.359C287.551 223.325 285.065 224.241 282.891 225.045C273.807 228.404 265.208 232.421 256.472 236.596C257.221 233.216 294.542 202.414 299.174 199.031Z"/><path fill="#FAF9F9" transform="scale(0.195312 0.195312)" d="M655.139 235.936C658.344 229.712 663.338 225.323 670.808 227C674.269 227.763 677.261 229.921 679.078 232.965C681.647 237.351 681.255 240.779 680.026 245.366C684.393 252.15 686.456 257.4 687.759 265.476C690.482 282.347 681.891 305.609 671.907 318.966C672.409 314.42 674.951 307.106 676.328 302.523C682.358 282.457 684.031 269.444 676.131 250.013C666.311 254.45 658.248 251.388 654.878 240.939C628.864 243.68 597.919 259.297 576.913 274.934C576.909 275.602 576.887 276.269 576.848 276.936C575.99 290.402 564.547 290.681 554.287 289.803C557.377 292.291 563.694 295.831 567.322 298.175C574.489 302.75 581.124 308.109 587.104 314.153C579.098 322.116 571.184 330.172 563.363 338.318C551.069 326.255 543.064 320.807 526.679 315.624C515.928 325.309 504.431 334.657 493.517 344.465C481.814 355.181 470.476 366.29 459.523 377.773C454.345 383.19 446.75 390.909 442.215 396.714C449.601 430.069 478.253 448.668 510.895 451.507C502.24 459.635 484.869 471.861 474.873 479.097C455.048 472.164 437.803 459.359 425.433 442.386C433.806 432.176 431.465 423.038 426.835 412.022C424.806 413.976 423.327 415.793 421.524 417.936C424.01 424.438 424.847 431.62 418.655 436.611C413.933 440.417 408.641 439.861 402.984 439.355C387.039 456.87 364.995 490.856 361.451 514.318C361.572 514.585 361.693 514.853 361.814 515.12C365.671 514.833 368.336 514.439 371.847 516.386C375.906 518.638 377.463 521.701 378.632 525.898L378.805 526.539C436.093 523.693 489.739 479.156 532.653 444.858C541.163 438.057 549.38 431.44 555.668 422.433C555.885 418.898 562.14 412.686 564.166 407.974C563.93 406.72 563.842 406.722 563.18 405.603C560.552 404.851 556.225 405.105 553.328 404.973C539.696 404.351 526.011 404.892 512.368 404.677C509.46 404.631 506.589 404.645 503.723 404.093C502.274 404.029 500.679 404.259 499.8 403.537C508.298 393.752 522.418 380.396 531.82 371.072C557.092 371.071 585.262 370.604 610.374 371.433L610.463 483.539C597.786 483.535 584.849 483.659 572.194 483.479C572.045 475.389 571.996 467.298 572.046 459.206C565.689 464.312 559.508 469.149 552.442 473.311C538.065 481.78 514.439 490.387 497.691 488.654L497.21 488.599C484.5 496.837 471.906 504.653 458.283 511.358C469.811 523.279 483.517 538.266 501.277 539.209C506.745 538.547 511.233 536.817 516.84 536.68C521.065 536.576 522.358 539.302 523.907 539.326C541.554 539.589 561.225 519.856 569.243 505.687C553.586 505.065 530.745 502.107 515.938 497.307C524.725 497.309 533.033 498.073 541.752 498.427C552.484 498.775 563.223 498.79 573.956 498.472L576.751 493.152C578.778 493.335 582.314 493.456 584.022 494.253C584.508 495.429 584.359 495.653 584.285 496.962C588.07 498.413 608.581 493.789 612.859 491.765C623.493 486.735 631.574 471.168 639.003 461.785C634.455 463.912 626.141 467.802 621.237 467.742L620.229 467.216C619.082 462.647 631.124 457.325 634.901 454.819C671.247 430.701 662.592 394.029 635.512 366.191C630.115 376.452 626.196 382.332 620.222 392.036C620.586 373.592 623.324 375.845 629.179 359.644C622.318 352.632 615.112 345.965 607.589 339.668C604.875 337.417 590.741 326.846 589.732 325.518L589.793 324.627C595.317 323.108 626.776 346.76 631.923 351.451C639.109 325.281 637.039 303.85 623.332 279.793C619.32 272.888 614.542 266.457 609.088 260.623C613.052 258.595 617.296 256.315 621.284 254.407C656.173 287.502 678.736 327.242 680.071 376.316C681.61 421.946 664.824 466.293 633.458 499.468C602.581 531.485 560.412 550.164 515.953 551.517C489.314 552.118 468.336 547.406 443.949 537.188C440.372 535.689 432.284 531.064 430.009 530.271C426.715 529.665 427.205 529.7 424.601 527.643C422.427 525.925 419.809 528.625 415.946 528.065C401.483 531.825 392.669 533.179 377.608 533.456C371.679 540.095 365.69 542.206 357.582 536.827C355.146 535.211 354.123 532.844 353.59 530.104C352.733 525.699 354.937 522.468 355.682 518.333C356.336 513.271 356.468 509.584 357.807 504.518C364.843 477.899 380.891 455.158 397.215 433.65C392.536 419.46 399.203 410.714 414.046 412.239C416.824 409.348 419.497 406.046 422.195 403.037C451.131 370.763 481.483 339.315 513.896 310.518C525.082 300.58 537.425 291.534 549.223 282.376C548.112 278.141 547.655 273.274 550.028 269.459C555.994 259.87 564.803 260.913 572.972 265.739C599 250.219 624.405 238.098 655.139 235.936Z"/><path fill="#414040" transform="scale(0.195312 0.195312)" d="M453.839 513.427C463.104 524.172 466.706 526.921 478.124 535.288C464.112 530.981 453.754 527.057 440.307 521.344C435.596 523.148 429.959 525.143 425.416 527.182L430.009 530.271C426.715 529.665 427.205 529.7 424.601 527.643C422.427 525.925 419.809 528.625 415.946 528.065C428.863 523.962 441.517 519.073 453.839 513.427Z"/><path fill="#414040" transform="scale(0.195312 0.195312)" d="M503.723 404.093C524.989 403.802 546.719 404.03 568.031 404.026C564.608 409.674 559.892 417.469 555.668 422.433C555.885 418.898 562.14 412.686 564.166 407.974C563.93 406.72 563.842 406.722 563.18 405.603C560.552 404.851 556.225 405.105 553.328 404.973C539.696 404.351 526.011 404.892 512.368 404.677C509.46 404.631 506.589 404.645 503.723 404.093Z"/><path fill="#414040" transform="scale(0.195312 0.195312)" d="M638.322 287.368C641.506 290.064 646.206 298.057 648.529 301.711C661.137 321.544 663.236 344.476 665.013 367.236C665.811 377.456 665.921 385.464 665.394 395.72C664.639 394.568 664.335 393.642 663.799 392.374C658.382 379.615 649.005 367.54 639.447 357.603C648.453 331.634 647.586 312.635 638.322 287.368Z"/><path fill="#414040" transform="scale(0.195312 0.195312)" d="M608.38 500.594L609.159 500.638L609.109 501.222C594.139 513.938 569.233 525.193 550.954 533.535L550.64 533.522L550.304 533.159C562.46 524.373 570.512 517.914 579.101 505.504C590.721 504.26 596.95 503.461 608.38 500.594Z"/><path fill="#414040" transform="scale(0.195312 0.195312)" d="M644.344 458.486L644.718 459.014C643.226 462.588 639.856 467.493 637.541 470.648L637.176 470.451C638.175 467.402 639.119 464.335 640.008 461.251L644.344 458.486Z"/><path fill="#FAF9F9" transform="scale(0.195312 0.195312)" d="M304.84 542.86C306.531 544.69 308.589 565.488 308.985 568.851C306.425 572.614 303.251 576.492 300.421 580.101C301.228 581.417 301.911 582.724 302.588 584.11C306.568 592.155 307.13 601.466 304.145 609.93C297.28 629.324 278.269 635.592 259.765 628.794C220.318 676.108 172.085 755.006 161.899 816.411C183.987 811.634 199.043 820.863 203.693 843.045C262.601 842.283 326.887 810.692 376.718 781.244C390.703 772.979 403.919 763.975 417.656 755.762C434.7 756.476 448.266 756.49 465.353 756.278C454.595 763.376 444.58 770.881 433.541 777.826C371.836 816.264 274.221 864.18 200.24 859.532C194.749 869.529 185.035 876.028 173.463 876.144C164.992 876.181 156.855 872.841 150.854 866.862C145.221 861.249 142.045 853.63 142.021 845.678C142.074 834.402 147.133 827.084 154.797 819.554L148.767 822.211C147.81 809.576 151.835 792.181 155.576 779.999C168.812 736.899 190.497 696.456 215.23 658.933C224.367 645.07 235.049 629.593 245.694 616.813C241.184 608.516 239.402 599.847 241.815 590.563C243.995 582.011 249.529 574.698 257.168 570.278C265.904 565.267 274.05 565.233 283.511 567.715C290.651 559.403 297.871 551.341 304.84 542.86Z"/><path fill="#FAF9F9" transform="scale(0.195312 0.195312)" d="M368.264 471.135C357.642 453.464 350.213 435.36 346.283 415.022C337.585 371.491 346.564 326.287 371.241 289.386C396.562 252.286 435.612 226.794 479.764 218.54C523.073 210.047 567.984 219.019 604.706 243.5C601.83 244.699 598.966 245.926 596.115 247.182C591.11 243.853 584.824 239.549 579.567 236.824L579.689 237.528C581.49 240.424 584.475 248.563 585.829 252.043C579.178 247.556 576.008 247.014 568.144 245.351C570.765 249.478 573.158 253.746 575.311 258.136C571.827 257.09 568.757 255.831 565.381 254.493C557.727 243.859 544.894 228.92 531.231 225.552C524.493 223.891 514.18 226.56 507.156 226.999C505.525 227.101 504.534 225.707 503.443 224.69C484.805 226.397 465.822 247.279 456.915 262.29C475.085 263.23 489.645 265.946 507.448 269.762C492.49 270.733 469.171 268.87 452.686 268.937C449.846 274.396 447.604 279.76 445.278 285.443C442.637 291.894 436.502 296.592 431.358 301.179C434.252 289.727 437.264 281.374 441.424 270.339C434.746 270.986 428.152 272.325 421.75 274.333C410.162 278.044 393.981 286.544 388.492 297.997C375.593 324.908 376.13 341.938 385.274 369.369C391.838 362.495 397.295 357.062 404.271 350.557C399.057 362.404 395.442 366.819 387.615 376.872L400.033 404.842L395.401 408.119C390.114 400.041 386.72 393.67 382.321 385.116C378.066 391.383 374.515 398.1 371.734 405.147C363.298 426.973 368.323 435.947 376.975 455.67C374.011 460.791 371.107 465.946 368.264 471.135Z"/><path fill="#414040" transform="scale(0.195312 0.195312)" d="M546.108 226.445C554.876 228.343 572.61 231.843 579.567 236.824L579.689 237.528C579.086 239.096 577.769 240.893 576.816 242.331C572.878 243.231 570.415 243.353 566.385 243.589C559.15 236.24 554.343 232.363 546.108 226.445Z"/><path fill="#414040" transform="scale(0.195312 0.195312)" d="M369.845 320.916C367.36 345.448 370.274 354.488 377.945 377.085C371.058 385.504 365.828 394.604 361.479 404.552L359.871 408.857C359.016 401.518 355.674 362.048 360.532 357.495C362.046 357.497 362.306 357.572 363.791 357.157C364.315 355.39 362.313 352.535 362.139 350.752C360.998 339.016 364.218 330.293 369.845 320.916Z"/><path fill="#414040" transform="scale(0.195312 0.195312)" d="M468.029 232.53L468.386 232.571L468.568 232.985C457.118 243.566 453.258 249.19 445.088 262.4C436.764 262.727 429.235 264.331 421.238 266.405L420.575 266.019C422.449 262.713 435.635 248.215 438.962 245.639C445.732 240.398 459.78 235.348 468.029 232.53Z"/><path fill="#414040" transform="scale(0.195312 0.195312)" d="M420.04 258.504L420.353 258.933C419.427 262.049 417.913 264.738 416.449 267.648C412.254 269.614 407.831 271.446 403.542 273.449L403.236 273.029C407.728 268.455 414.993 262.51 420.04 258.504Z"/><path fill="#FAF9F9" transform="scale(0.195312 0.195312)" d="M872.251 125.167C877.045 124.706 882.779 125.735 887.18 127.655C894.785 130.967 900.715 137.229 903.607 145.002C907.029 154.175 905.583 161.431 901.758 169.939C911.968 182.889 917.386 194.099 920.561 210.486C928.917 253.602 911.131 309.038 887.294 344.809C886.562 342.218 886.131 339.928 885.61 337.298C899.326 306.133 910.091 254.248 905.621 220.016C903.713 205.404 898.978 192.967 894.223 179.221L893.604 179.625C877.124 190.189 858.855 186.548 848.342 169.753C846.321 165.834 845.429 162.614 844.353 158.39C787.446 164.65 734.138 191.182 686.917 222.592C677.109 213.224 669.06 212.25 656.356 215.959C664.525 208.956 684.788 198.203 694.439 192.941C735.751 170.419 780.136 152.277 827.352 147.769C833.237 147.207 838.978 147.242 844.895 147.032C852.622 134.497 855.199 127.172 872.251 125.167Z"/><path fill="#FAF9F9" transform="scale(0.195312 0.195312)" d="M225.805 695.163C227.882 696.163 236.725 702.946 239.191 704.702C245.909 709.392 252.744 713.91 259.691 718.253C280.439 731.192 302.505 739.389 326.158 745.17C327.617 745.527 336.132 747.955 337.115 747.356C341.595 744.624 345.188 749.886 349.351 751.304C359.828 754.985 371.866 755.971 383.009 757.119C377.129 762.184 360.281 772.792 353.043 777.705C351.251 774.725 349.892 772.624 347.859 769.809C333.546 766.938 320.527 764.412 306.424 760.636C309.588 766.07 321.862 786.065 317.139 791.371C304.813 795.145 307.438 765.876 305.847 760.903C303.319 759.271 296.074 757.407 292.858 756.429C278.795 752.15 266.718 746.478 253.598 739.866C255.828 743.681 258.88 748.106 261.326 751.864C268.448 762.896 275.286 775.573 285.404 784.008C293.949 791.133 302.406 798.391 311.259 805.132C300.291 810.949 286.633 816.138 275.019 820.579C244.539 797.055 217.76 769.092 195.576 737.624C200.278 728.967 204.621 720.17 209.606 711.658C219.898 719.551 230.464 726.774 238.823 736.73C242.621 741.253 246.633 745.697 250.483 750.195C241.589 732.778 242.677 735.325 229.78 722.656C228.459 713.987 226.645 703.764 225.805 695.163Z"/><path fill="#FAF9F9" transform="scale(0.195312 0.195312)" d="M495.087 573.148C496.006 573.127 496.926 573.117 497.845 573.118C522.085 573.005 553.821 569.111 572.207 587.949C588.499 604.642 587.3 632.756 570.91 649.053C556.335 662.526 539.405 662.059 521.004 662.031L495.116 662.023C494.951 632.398 494.941 602.773 495.087 573.148Z"/><path fill="#262626" transform="scale(0.195312 0.195312)" d="M517.036 591.61C529.495 591.385 543.895 589.589 553.787 598.641C565.424 609.289 564.232 625.458 554.16 636.635C543.675 645.86 530.562 643.904 517.266 643.643C516.742 637.373 516.945 628.609 516.932 622.178C516.912 612.122 516.76 601.62 517.036 591.61Z"/><path fill="#FAF9F9" transform="scale(0.195312 0.195312)" d="M502.62 280.202C511.992 278.591 528.102 281.496 537.426 283.114C525.683 293.287 513.069 301.728 502.164 313.311C490.125 314.44 478.615 318.799 468.848 325.928C452.638 337.694 443.39 354.739 440.307 374.293C435.772 379.294 430.783 384.179 426.099 389.354C421.688 394.493 417.636 399.078 413.764 404.659C411.584 404.381 409.376 404.145 407.191 403.895C406.687 400.215 406.121 396.432 405.816 392.738C400.846 332.416 443.285 285.588 502.62 280.202Z"/><path fill="#FAF9F9" transform="scale(0.195312 0.195312)" d="M434.362 572.197C448.832 569.725 466.501 576.126 477.027 586.125C472.989 590.51 469.009 594.947 465.087 599.436C453.962 591.497 440.091 586.804 427.13 593.567C420.782 596.902 416.02 602.623 413.892 609.47C405.914 635.209 434.914 654.331 457.427 641.186C457.685 637.159 457.596 632.622 457.606 628.548L440.539 628.44L440.511 612.543L448.875 612.491L478.612 612.52C478.84 624.599 478.584 637.525 478.559 649.671C461.778 666.594 427.168 668.115 408.181 653.544C398.579 646.198 392.369 635.269 390.974 623.26C389.439 611.165 392.809 598.958 400.333 589.363C408.953 578.541 420.96 573.734 434.362 572.197Z"/><path fill="#FAF9F9" transform="scale(0.195312 0.195312)" d="M134.817 651.846C137.291 653.677 137.944 655.037 137.198 658.168C135.441 665.535 132.897 672.658 130.985 680.002C125.068 702.717 119.582 725.591 118.65 749.144C117.704 771.901 120.475 794.5 134.111 813.476C137.572 818.292 141.18 822.031 145.166 826.385C142.756 831.228 141.485 834.058 139.649 839.18L134.833 835.8C85.1482 796.85 100.876 723.475 123.616 674.104C126.889 666.998 130.601 658.403 134.817 651.846Z"/><path fill="#FAF9F9" transform="scale(0.195312 0.195312)" d="M599.679 573.212C607.011 573.088 614.344 573.091 621.676 573.219C622.266 602.374 621.778 632.721 621.869 662.005L599.831 662.034C600.098 632.596 599.759 602.672 599.679 573.212Z"/><path fill="#FAF9F9" transform="scale(0.195312 0.195312)" d="M427.536 458.303C429.287 459.265 437.01 468.566 438.445 470.314C442.623 475.403 445.258 483.428 447.887 489.555C450.707 489.944 454.655 490.009 457.601 490.136C453.883 493.118 449.188 495.875 445.103 498.43C438.526 495.512 430.885 494.646 423.839 492.716C415.666 490.477 409.068 487.786 401.321 484.572C412.869 502.63 410.235 498.273 425.597 511.635C420.822 513.584 415.527 515.413 410.655 517.2C406.688 514.092 402.777 510.913 398.925 507.664C390.475 500.31 382.998 491.907 376.677 482.659C378.619 479.289 380.515 475.685 382.386 472.258C387.781 477.733 393.7 482.236 399.781 486.889C397.42 482.991 393.714 479.468 390.678 475.772C390.38 472.119 389.842 468.463 389.349 464.829C391.689 467.139 395.978 471.452 398.687 473.027C410.224 479.734 425.152 484.156 438.026 487.084C434.706 477.523 430.476 468.088 427.536 458.303Z"/><path fill="#FAF9F9" transform="scale(0.195312 0.195312)" d="M596.554 687.073C620.963 685.493 625.838 718.903 602.534 725.241C575.771 727.128 574.021 692.201 596.554 687.073Z"/><path fill="#262626" transform="scale(0.195312 0.195312)" d="M596.047 692.555C598.086 692.43 600.561 692.174 602.495 692.786C605.436 693.735 607.877 695.817 609.278 698.572C613.395 706.476 610.833 715.55 602.899 719.805C585.324 722.522 582.69 698.965 596.047 692.555Z"/><path fill="#FAF9F9" transform="scale(0.195312 0.195312)" d="M527.469 687.567C529.592 687.415 530.266 687.21 532.212 687.886C534.518 690.077 540.069 711.47 541.421 715.991C543.3 708.733 545.869 701.383 548.013 694.178C548.895 691.216 550.269 687.394 553.771 687.363C558.372 690.042 562.785 709.717 564.595 715.944C566.941 707.43 569.163 698.77 571.718 690.326C572.613 687.368 576.129 686.723 577.978 688.774C578.184 690.604 577.237 693.069 576.691 694.919C573.896 704.812 570.977 714.67 567.933 724.489C565.613 724.565 564.891 724.638 562.646 724.247C560.441 722.263 554.289 701.097 552.967 696.972C550.059 704.813 547.043 716.169 544.285 724.54L538.215 724.511C536.73 720.414 526.926 690.259 527.469 687.567Z"/><path fill="#FAF9F9" transform="scale(0.195312 0.195312)" d="M448.344 687.671C458.551 687.368 477.946 685.007 475.303 701.483C474.635 705.649 471.502 707.791 468.241 709.93C470.954 714.996 473.845 719.648 476.844 724.541C474.399 724.631 471.902 724.895 469.557 724.332L461.927 710.516L454.264 710.513C454.099 714.354 455.362 721.52 452.702 724.036C451.086 724.702 449.515 725.008 448.322 723.585C447.723 719.169 447.588 691.441 448.344 687.671Z"/><path fill="#262626" transform="scale(0.195312 0.195312)" d="M454.132 692.87C461.199 692.77 473.899 692.284 467.906 703.543C463.647 706.33 459.284 705.541 454.112 705.418L454.132 692.87Z"/><path fill="#FAF9F9" transform="scale(0.195312 0.195312)" d="M624.68 687.734C635.071 687.088 654.227 685.277 651.816 701.273C651.151 705.684 648.133 707.714 644.751 709.995C647.412 714.754 650.521 719.802 653.317 724.525L646.231 724.602C643.733 719.869 641.139 715.188 638.449 710.561L630.654 710.583C630.512 714.771 632.138 722.189 628.576 724.526C626.922 724.64 626.615 724.803 625.076 724.176C623.81 721.685 624.392 692.404 624.68 687.734Z"/><path fill="#262626" transform="scale(0.195312 0.195312)" d="M630.581 692.945C637.158 692.772 651.4 692.75 644.109 703.782C639.624 706.191 635.684 705.522 630.528 705.449L630.581 692.945Z"/><path fill="#FAF9F9" transform="scale(0.195312 0.195312)" d="M483.171 687.612C487.276 687.532 504.999 686.42 507.689 688.818C508.173 690.532 508.226 689.717 507.535 691.347C504.021 693.824 494.132 693.012 489.349 692.955L489.4 703.496C494.45 703.408 502.6 702.634 506.533 705.612L506.617 706.429C503.762 709.489 493.583 708.722 489.423 708.694L489.392 719.482C493.628 719.469 505.976 718.261 508.348 721.712C508.389 723.484 508.646 722.732 507.698 724.091C502.143 725.559 489.502 724.866 483.123 724.749C482.791 713.165 482.874 699.192 483.171 687.612Z"/><path fill="#FAF9F9" transform="scale(0.195312 0.195312)" d="M337.194 687.521C344.222 687.332 342.958 688.379 343.301 694.955C343.607 700.827 341.648 712.02 345.061 716.918C347.363 720.828 356.401 721.081 358.855 717.644C362.978 711.869 361.486 694.473 361.488 687.629C363.417 687.538 365.444 687.18 367.022 688.133C367.954 689.557 367.722 690.914 367.725 692.674C367.699 696.438 367.693 700.202 367.709 703.966C367.723 710.135 368.425 716.571 363.682 721.268C358.057 726.781 345.298 727.111 340.165 720.861C335.981 715.768 336.876 706.242 336.791 699.961C336.737 696.038 336.85 691.459 337.194 687.521Z"/><path fill="#FAF9F9" transform="scale(0.195312 0.195312)" d="M408.561 687.634C410.446 687.589 412.575 687.658 414.482 687.674C414.597 693.456 412.941 714.896 417.509 717.639C437.424 729.595 433.048 697.31 433.205 687.603C435.115 687.562 437.205 687.255 438.738 688.227C439.645 689.579 439.386 691.089 439.375 692.802C439.441 699.306 440.948 716.292 435.02 721.37C426.287 728.85 409.575 726.234 408.562 712.653C408.009 705.247 408.404 695.769 408.561 687.634Z"/><path fill="#FAF9F9" transform="scale(0.195312 0.195312)" d="M681.156 687.541C683.402 687.519 685.914 687.624 688.183 687.666C683.67 693.285 677.13 699.755 672.211 705.566C677.281 711.86 683.238 718.388 688.63 724.481L680.564 724.526C676.506 719.953 670.793 712.417 666.402 708.592C665.542 711.704 665.858 720.758 665.886 724.469L659.578 724.499C659.546 718.326 659.077 693.063 659.83 688.39C661.177 687.494 663.215 687.59 664.604 688.353C666.433 691.506 665.602 699.022 665.979 703.712C671.021 698.888 675.778 692.753 681.156 687.541Z"/><path fill="#FAF9F9" transform="scale(0.195312 0.195312)" d="M702.462 687.067C711.499 686.591 715.179 688.335 718.975 696.558C710.463 698.162 713.125 694.24 706.179 691.893C703.962 691.144 698.428 694.154 698.016 697.508C700.441 703.129 709.862 703.085 714.506 706.422C725.131 714.055 718.439 723.691 707.256 725.25C705.202 725.355 703.023 725.179 701.006 724.738C698.276 724.142 689.535 718.979 691.211 715.59C697.224 711.705 699.306 720.823 705.978 720.207C709.376 719.893 713.651 718.179 713.308 714.038C710.115 707.19 694.656 709.27 692.362 700.075C690.458 692.44 695.717 688.682 702.462 687.067Z"/><path fill="#FAF9F9" transform="scale(0.195312 0.195312)" d="M349.688 447.728C350.782 448.672 350.675 449.879 350.32 451.209C343.848 475.476 334.84 498.45 353.952 519.219C353.722 520.052 353.487 520.884 353.245 521.713C352.687 523.596 352.751 523.987 351.347 524.74L349.754 523.87C329.39 509.536 333.976 481.066 342.639 461.587C344.505 457.39 346.998 451.378 349.688 447.728Z"/><path fill="#FAF9F9" transform="scale(0.195312 0.195312)" d="M507.977 142.565C511.372 142.492 515.022 142.587 518.439 142.617C519.101 157.326 516.735 182.923 515.273 197.378C514.816 198.641 514.818 198.48 514.061 199.64L513.11 199.824C508.47 195.301 508.05 151.269 507.977 142.565Z"/><path fill="#FAF9F9" transform="scale(0.195312 0.195312)" d="M305.701 687.589C310.486 687.512 326.394 686.776 329.895 688.258C331.05 689.605 330.76 688.853 330.875 690.559L329.96 691.57C325.7 693.335 316.941 692.674 312 692.603L312.024 704.162C317.002 704.074 326.146 703.193 329.8 705.957C327.593 711.15 317.161 709.495 312.09 709.426C312.069 713.876 313.588 721.342 310.265 724.395C308.531 724.593 308.362 724.745 306.698 724.137C305.216 721.8 305.683 692.25 305.701 687.589Z"/><path fill="#FAF9F9" transform="scale(0.195312 0.195312)" d="M514.104 795.371C516.149 797.354 520.907 848.318 519.342 851.274L517.625 851.497L510.406 851.572C510.386 842.443 510.567 802.176 514.104 795.371Z"/><path fill="#FAF9F9" transform="scale(0.195312 0.195312)" d="M374.678 687.647C381.076 687.397 394.829 687.022 401.425 688.086C401.803 688.415 402.18 688.744 402.558 689.073C403.15 690.936 403.204 690.065 402.538 691.781C399.995 693.67 394.344 693.077 390.952 693.012L390.872 715.612L390.907 724.492C388.493 724.6 387.735 724.736 385.426 724.23C384.069 722.496 384.646 696.98 384.658 692.931C381.506 692.999 373.766 694.011 372.477 690.577C372.82 688.971 373.407 688.711 374.678 687.647Z"/><path fill="#FAF9F9" transform="scale(0.195312 0.195312)" d="M582.744 278.309C585.133 280.536 589.253 297.371 588.439 300.299L587.59 299.803C582.579 293.195 575.652 285.456 582.744 278.309Z"/><path fill="#FAF9F9" transform="scale(0.195312 0.195312)" d="M511.814 233.743C512.665 233.968 513.783 234.052 514.044 234.632C516.115 239.224 513.806 253.962 513.142 258.682L512.325 258.485C510.539 254.245 508.939 237.331 511.814 233.743Z"/><path fill="#FAF9F9" transform="scale(0.195312 0.195312)" d="M512.153 506.355C515.018 508.97 515.456 526.827 514.043 530.539C512.734 530.152 512.677 530.223 511.614 529.409C509.558 524.93 511.091 511.463 512.153 506.355Z"/><path fill="#FAF9F9" transform="scale(0.195312 0.195312)" d="M423.884 494.387C426.82 497.59 429.119 499.877 428.598 504.439C422.935 504.662 423.516 498.151 423.884 494.387Z"/></svg>